<svg width="21" height="17" viewBox="0 0 21 17" fill="none" xmlns="http://www.w3.org/2000/svg">
<path d="M10.2188 4.48828L3.75 9.83203V15.5625C3.75 15.8789 3.99609 16.125 4.3125 16.125H8.25C8.53125 16.125 8.77734 15.8789 8.77734 15.5625V12.1875C8.77734 11.9062 9.05859 11.625 9.33984 11.625H11.5898C11.9062 11.625 12.1523 11.9062 12.1523 12.1875V15.5625C12.1523 15.8789 12.4336 16.125 12.7148 16.125H16.6875C16.9688 16.125 17.25 15.8789 17.25 15.5625V9.79688L10.7461 4.48828C10.6758 4.41797 10.5703 4.38281 10.5 4.38281C10.3945 4.38281 10.2891 4.41797 10.2188 4.48828ZM20.4492 8.10938L17.5312 5.68359V0.832031C17.5312 0.585938 17.3203 0.410156 17.1094 0.410156H15.1406C14.8945 0.410156 14.7188 0.585938 14.7188 0.832031V3.36328L11.5547 0.761719C11.2734 0.550781 10.8867 0.410156 10.5 0.410156C10.0781 0.410156 9.69141 0.550781 9.41016 0.761719L0.515625 8.10938C0.410156 8.17969 0.339844 8.32031 0.339844 8.42578C0.339844 8.53125 0.410156 8.63672 0.445312 8.70703L1.35938 9.79688C1.42969 9.90234 1.53516 9.9375 1.67578 9.9375C1.78125 9.9375 1.88672 9.90234 1.95703 9.83203L10.2188 3.04688C10.2891 2.97656 10.3945 2.94141 10.5 2.94141C10.5703 2.94141 10.6758 2.97656 10.7461 3.04688L19.0078 9.83203C19.0781 9.90234 19.1836 9.9375 19.2891 9.9375C19.4297 9.9375 19.5352 9.90234 19.6055 9.79688L20.5195 8.70703C20.5898 8.63672 20.625 8.53125 20.625 8.42578C20.625 8.32031 20.5547 8.17969 20.4492 8.10938Z" fill="#39A2AE" fill-opacity="0.4"/>
</svg>
